<svg xmlns="http://www.w3.org/2000/svg" viewBox="0 0 1200 675" width="1200" height="675">
  <defs>
    <linearGradient id="bg" x1="0%" y1="0%" x2="100%" y2="100%">
      <stop offset="0%" style="stop-color:#060612;stop-opacity:1"/>
      <stop offset="100%" style="stop-color:#101423;stop-opacity:1"/>
    </linearGradient>
    <radialGradient id="glow1" cx="40%" cy="40%" r="45%">
      <stop offset="0%" style="stop-color:#ff4154;stop-opacity:0.18"/>
      <stop offset="100%" style="stop-color:#060612;stop-opacity:0"/>
    </radialGradient>
    <radialGradient id="glow2" cx="70%" cy="65%" r="35%">
      <stop offset="0%" style="stop-color:#ffb224;stop-opacity:0.14"/>
      <stop offset="100%" style="stop-color:#060612;stop-opacity:0"/>
    </radialGradient>
    <radialGradient id="glow3" cx="20%" cy="70%" r="28%">
      <stop offset="0%" style="stop-color:#61dafb;stop-opacity:0.1"/>
      <stop offset="100%" style="stop-color:#060612;stop-opacity:0"/>
    </radialGradient>
  </defs>
  <rect width="1200" height="675" fill="url(#bg)"/>
  <rect width="1200" height="675" fill="url(#glow1)"/>
  <rect width="1200" height="675" fill="url(#glow2)"/>
  <rect width="1200" height="675" fill="url(#glow3)"/>
  <g opacity="0.055" stroke="#ffffff" stroke-width="0.5">
    <line x1="0" y1="80" x2="1200" y2="80"/><line x1="0" y1="160" x2="1200" y2="160"/><line x1="0" y1="240" x2="1200" y2="240"/><line x1="0" y1="320" x2="1200" y2="320"/><line x1="0" y1="400" x2="1200" y2="400"/><line x1="0" y1="480" x2="1200" y2="480"/><line x1="0" y1="560" x2="1200" y2="560"/><line x1="0" y1="640" x2="1200" y2="640"/>
    <line x1="110" y1="0" x2="110" y2="675"/><line x1="220" y1="0" x2="220" y2="675"/><line x1="330" y1="0" x2="330" y2="675"/><line x1="440" y1="0" x2="440" y2="675"/><line x1="550" y1="0" x2="550" y2="675"/><line x1="660" y1="0" x2="660" y2="675"/><line x1="770" y1="0" x2="770" y2="675"/><line x1="880" y1="0" x2="880" y2="675"/><line x1="990" y1="0" x2="990" y2="675"/><line x1="1100" y1="0" x2="1100" y2="675"/>
  </g>
  <rect x="60" y="90" width="720" height="480" rx="10" fill="#0d0d1a" stroke="#1e1e3f" stroke-width="1.5" opacity="0.95"/>
  <rect x="60" y="90" width="720" height="38" rx="10" fill="#111128" opacity="1"/>
  <rect x="60" y="108" width="720" height="20" fill="#111128" opacity="1"/>
  <circle cx="88" cy="109" r="6" fill="#ff5f57" opacity="0.85"/>
  <circle cx="108" cy="109" r="6" fill="#ffbd2e" opacity="0.85"/>
  <circle cx="128" cy="109" r="6" fill="#28c840" opacity="0.85"/>
  <rect x="150" y="96" width="120" height="26" rx="4" fill="#1e1e3f" opacity="0.8"/>
  <text x="210" y="113" text-anchor="middle" font-family="monospace" font-size="10" fill="#ff4154" opacity="0.9">useQuery.ts</text>
  <rect x="278" y="96" width="110" height="26" rx="4" fill="#0d0d1a" opacity="0.6"/>
  <text x="333" y="113" text-anchor="middle" font-family="monospace" font-size="10" fill="#6b7280" opacity="0.7">cache.ts</text>
  
  <g font-family="monospace" font-size="12" opacity="0.3" fill="#6b7280">
    <text x="78" y="158">1</text><text x="78" y="180">2</text><text x="78" y="202">3</text><text x="78" y="224">4</text><text x="78" y="246">5</text><text x="78" y="268">6</text><text x="78" y="290">7</text><text x="78" y="312">8</text><text x="78" y="334">9</text><text x="72" y="356">10</text><text x="72" y="378">11</text><text x="72" y="400">12</text><text x="72" y="422">13</text><text x="72" y="444">14</text><text x="72" y="466">15</text>
  </g>
  <g font-family="monospace" font-size="12">
    <text x="100" y="158" fill="#c792ea" opacity="0.9">import</text><text x="148" y="158" fill="#e2e8f0" opacity="0.85"> { </text><text x="163" y="158" fill="#82aaff" opacity="0.9">useQuery</text><text x="230" y="158" fill="#e2e8f0" opacity="0.85"> } </text><text x="250" y="158" fill="#c792ea" opacity="0.9">from</text><text x="283" y="158" fill="#c3e88d" opacity="0.9"> '@tanstack/react-query'</text>
    <text x="100" y="202" fill="#c792ea" opacity="0.9">const</text><text x="137" y="202" fill="#82aaff" opacity="0.9"> DataFetcher</text><text x="225" y="202" fill="#e2e8f0" opacity="0.75"> = () </text><text x="260" y="202" fill="#89ddff" opacity="0.9">=&gt;</text><text x="280" y="202" fill="#e2e8f0" opacity="0.75"> {</text>
    <text x="115" y="246" fill="#c792ea" opacity="0.9">  const</text><text x="155" y="246" fill="#e2e8f0" opacity="0.75"> { </text><text x="175" y="246" fill="#ffcb6b" opacity="0.9">data</text><text x="207" y="246" fill="#e2e8f0" opacity="0.75">, </text><text x="220" y="246" fill="#ffcb6b" opacity="0.9">isLoading</text><text x="290" y="246" fill="#e2e8f0" opacity="0.75"> } = </text><text x="320" y="246" fill="#82aaff" opacity="0.9">useQuery</text><text x="380" y="246" fill="#e2e8f0" opacity="0.75">({</text>
    <text x="130" y="268" fill="#f07178" opacity="0.9">    queryKey:</text><text x="205" y="268" fill="#e2e8f0" opacity="0.75"> [</text><text x="220" y="268" fill="#c3e88d" opacity="0.9">'users'</text><text x="275" y="268" fill="#e2e8f0" opacity="0.75">],</text>
    <text x="130" y="290" fill="#f07178" opacity="0.9">    queryFn:</text><text x="195" y="290" fill="#82aaff" opacity="0.9"> fetchUsers</text><text x="275" y="290" fill="#e2e8f0" opacity="0.75">,</text>
    <text x="130" y="312" fill="#f07178" opacity="0.9">    staleTime:</text><text x="210" y="312" fill="#f78c6c" opacity="0.9"> 60000</text>
    <text x="115" y="334" fill="#e2e8f0" opacity="0.75">  })</text>
    <text x="115" y="378" fill="#c792ea" opacity="0.9">  if</text><text x="137" y="378" fill="#e2e8f0" opacity="0.75"> (isLoading) </text><text x="210" y="378" fill="#c792ea" opacity="0.9">return</text><text x="260" y="378" fill="#89ddff" opacity="0.9"> &lt;</text><text x="275" y="378" fill="#ffcb6b" opacity="0.9">Spinner</text><text x="325" y="378" fill="#89ddff" opacity="0.9"> /&gt;</text>
    
    <text x="115" y="422" fill="#c792ea" opacity="0.9">  return</text><text x="163" y="422" fill="#e2e8f0" opacity="0.75"> (</text>
    <text x="130" y="444" fill="#89ddff" opacity="0.9">    &lt;</text><text x="145" y="444" fill="#ffcb6b" opacity="0.9">div</text><text x="173" y="444" fill="#89ddff" opacity="0.9">&gt;</text><text x="185" y="444" fill="#e2e8f0" opacity="0.75">{data.map(...)}</text><text x="310" y="444" fill="#89ddff" opacity="0.85">&lt;/</text><text x="330" y="444" fill="#ffcb6b" opacity="0.85">div</text><text x="355" y="444" fill="#89ddff" opacity="0.85">&gt;</text>
    <text x="115" y="466" fill="#e2e8f0" opacity="0.5">  )</text>
    <text x="100" y="488" fill="#e2e8f0" opacity="0.5">}</text>
  </g>

  <!-- Server state architectural diagram block -->
  <g opacity="0.85">
    <rect x="830" y="110" width="120" height="40" rx="6" fill="#1e1e3f" stroke="#ff4154" stroke-width="1.5" opacity="0.9"/>
    <text x="890" y="134" text-anchor="middle" font-family="monospace" font-size="10" fill="#fca5a5">React App</text>
    <line x1="890" y1="150" x2="890" y2="200" stroke="#ff4154" stroke-width="1.5" opacity="0.7" stroke-dasharray="4,2"/>
    
    <rect x="810" y="200" width="160" height="40" rx="6" fill="#1e1e3f" stroke="#ffb224" stroke-width="1.5" opacity="0.9"/>
    <text x="890" y="224" text-anchor="middle" font-family="monospace" font-size="10" fill="#fcd34d">QueryClient Cache</text>
    
    <line x1="890" y1="240" x2="890" y2="290" stroke="#ffb224" stroke-width="1.5" opacity="0.7"/>
    
    <rect x="830" y="290" width="120" height="40" rx="6" fill="#1e1e3f" stroke="#61dafb" stroke-width="1.5" opacity="0.9"/>
    <text x="890" y="314" text-anchor="middle" font-family="monospace" font-size="10" fill="#bae6fd">API Server</text>

    <!-- Refetch cycle -->
    <path d="M 970 220 C 1030 220, 1030 290, 950 290" fill="none" stroke="#61dafb" stroke-width="1.2" opacity="0.5" stroke-dasharray="4,2"/>
    <polygon points="950,290 955,286 955,294" fill="#61dafb" opacity="0.5"/>
    <text x="1025" y="258" text-anchor="middle" font-family="monospace" font-size="9" fill="#bae6fd" opacity="0.7">refetch()</text>

    <circle cx="890" cy="130" r="3" fill="#ff4154" opacity="0.9"/>
    <circle cx="890" cy="130" r="7" fill="#ff4154" opacity="0.2"/>
    <circle cx="890" cy="220" r="3" fill="#ffb224" opacity="0.9"/>
    <circle cx="890" cy="220" r="7" fill="#ffb224" opacity="0.2"/>
  </g>
  <text x="60" y="620" font-family="monospace" font-size="13" fill="#ff4154" opacity="0.7">// TanStack Query · Server State · React</text>
  <radialGradient id="vig" cx="50%" cy="50%" r="70%">
    <stop offset="0%" style="stop-color:#000000;stop-opacity:0"/>
    <stop offset="100%" style="stop-color:#000000;stop-opacity:0.55"/>
  </radialGradient>
  <rect width="1200" height="675" fill="url(#vig)"/>
</svg>
