<svg xmlns="http://www.w3.org/2000/svg" viewBox="0 0 1200 675" width="1200" height="675">
  <defs>
    <linearGradient id="bg" x1="0%" y1="0%" x2="100%" y2="100%">
      <stop offset="0%" style="stop-color:#08080f;stop-opacity:1" />
      <stop offset="100%" style="stop-color:#0c0f1a;stop-opacity:1" />
    </linearGradient>
    <radialGradient id="glow1" cx="25%" cy="50%" r="40%">
      <stop offset="0%" style="stop-color:#1d4ed8;stop-opacity:0.15" />
      <stop offset="100%" style="stop-color:#08080f;stop-opacity:0" />
    </radialGradient>
    <radialGradient id="glow2" cx="70%" cy="40%" r="35%">
      <stop offset="0%" style="stop-color:#f97316;stop-opacity:0.12" />
      <stop offset="100%" style="stop-color:#08080f;stop-opacity:0" />
    </radialGradient>
    <radialGradient id="glow3" cx="50%" cy="75%" r="30%">
      <stop offset="0%" style="stop-color:#0ea5e9;stop-opacity:0.1" />
      <stop offset="100%" style="stop-color:#08080f;stop-opacity:0" />
    </radialGradient>
  </defs>
  <rect width="1200" height="675" fill="url(#bg)"/>
  <rect width="1200" height="675" fill="url(#glow1)"/>
  <rect width="1200" height="675" fill="url(#glow2)"/>
  <rect width="1200" height="675" fill="url(#glow3)"/>
  <g opacity="0.05" stroke="#ffffff" stroke-width="0.5">
    <line x1="0" y1="75" x2="1200" y2="75"/><line x1="0" y1="150" x2="1200" y2="150"/><line x1="0" y1="225" x2="1200" y2="225"/><line x1="0" y1="300" x2="1200" y2="300"/><line x1="0" y1="375" x2="1200" y2="375"/><line x1="0" y1="450" x2="1200" y2="450"/><line x1="0" y1="525" x2="1200" y2="525"/><line x1="0" y1="600" x2="1200" y2="600"/>
    <line x1="120" y1="0" x2="120" y2="675"/><line x1="240" y1="0" x2="240" y2="675"/><line x1="360" y1="0" x2="360" y2="675"/><line x1="480" y1="0" x2="480" y2="675"/><line x1="600" y1="0" x2="600" y2="675"/><line x1="720" y1="0" x2="720" y2="675"/><line x1="840" y1="0" x2="840" y2="675"/><line x1="960" y1="0" x2="960" y2="675"/><line x1="1080" y1="0" x2="1080" y2="675"/>
  </g>
  <g opacity="0.9">
    <rect x="80" y="200" width="160" height="90" rx="6" fill="none" stroke="#1d4ed8" stroke-width="1.5" opacity="0.6"/>
    <rect x="80" y="200" width="160" height="90" rx="6" fill="#1d4ed8" opacity="0.08"/>
    <text x="160" y="248" text-anchor="middle" font-family="monospace" font-size="11" fill="#60a5fa" opacity="0.8">Client</text>
    <text x="160" y="264" text-anchor="middle" font-family="monospace" font-size="9" fill="#60a5fa" opacity="0.5">React / Next.js</text>
    <line x1="240" y1="245" x2="320" y2="245" stroke="#f97316" stroke-width="1.5" opacity="0.5"/>
    <polygon points="320,240 332,245 320,250" fill="#f97316" opacity="0.5"/>
    <rect x="332" y="200" width="160" height="90" rx="6" fill="none" stroke="#f97316" stroke-width="1.5" opacity="0.6"/>
    <rect x="332" y="200" width="160" height="90" rx="6" fill="#f97316" opacity="0.08"/>
    <text x="412" y="248" text-anchor="middle" font-family="monospace" font-size="11" fill="#fb923c" opacity="0.8">API Gateway</text>
    <text x="412" y="264" text-anchor="middle" font-family="monospace" font-size="9" fill="#fb923c" opacity="0.5">Rate Limit · Auth</text>
    <line x1="492" y1="245" x2="572" y2="245" stroke="#f97316" stroke-width="1.5" opacity="0.5"/>
    <polygon points="572,240 584,245 572,250" fill="#f97316" opacity="0.5"/>
    <rect x="584" y="160" width="160" height="70" rx="6" fill="none" stroke="#0ea5e9" stroke-width="1.5" opacity="0.6"/>
    <rect x="584" y="160" width="160" height="70" rx="6" fill="#0ea5e9" opacity="0.08"/>
    <text x="664" y="198" text-anchor="middle" font-family="monospace" font-size="11" fill="#38bdf8" opacity="0.8">Service A</text>
    <text x="664" y="214" text-anchor="middle" font-family="monospace" font-size="9" fill="#38bdf8" opacity="0.5">Node.js</text>
    <rect x="584" y="250" width="160" height="70" rx="6" fill="none" stroke="#0ea5e9" stroke-width="1.5" opacity="0.6"/>
    <rect x="584" y="250" width="160" height="70" rx="6" fill="#0ea5e9" opacity="0.08"/>
    <text x="664" y="288" text-anchor="middle" font-family="monospace" font-size="11" fill="#38bdf8" opacity="0.8">Service B</text>
    <text x="664" y="304" text-anchor="middle" font-family="monospace" font-size="9" fill="#38bdf8" opacity="0.5">Python</text>
    <line x1="744" y1="195" x2="830" y2="195" stroke="#7c3aed" stroke-width="1.5" opacity="0.5"/>
    <polygon points="830,190 842,195 830,200" fill="#7c3aed" opacity="0.5"/>
    <line x1="744" y1="285" x2="830" y2="285" stroke="#7c3aed" stroke-width="1.5" opacity="0.5"/>
    <polygon points="830,280 842,285 830,290" fill="#7c3aed" opacity="0.5"/>
    <ellipse cx="910" cy="185" rx="55" ry="18" fill="none" stroke="#7c3aed" stroke-width="1.5" opacity="0.7"/>
    <ellipse cx="910" cy="185" rx="55" ry="18" fill="#7c3aed" opacity="0.1"/>
    <rect x="855" y="185" width="110" height="55" fill="none" stroke="#7c3aed" stroke-width="1.5" opacity="0.5"/>
    <rect x="855" y="185" width="110" height="55" fill="#7c3aed" opacity="0.06"/>
    <ellipse cx="910" cy="240" rx="55" ry="18" fill="#0c0f1a" stroke="#7c3aed" stroke-width="1.5" opacity="0.7"/>
    <text x="910" y="215" text-anchor="middle" font-family="monospace" font-size="10" fill="#a78bfa" opacity="0.8">PostgreSQL</text>
    <ellipse cx="910" cy="310" rx="55" ry="18" fill="none" stroke="#7c3aed" stroke-width="1.5" opacity="0.5"/>
    <ellipse cx="910" cy="310" rx="55" ry="18" fill="#7c3aed" opacity="0.08"/>
    <rect x="855" y="310" width="110" height="45" fill="none" stroke="#7c3aed" stroke-width="1.5" opacity="0.4"/>
    <rect x="855" y="310" width="110" height="45" fill="#7c3aed" opacity="0.05"/>
    <ellipse cx="910" cy="355" rx="55" ry="18" fill="#0c0f1a" stroke="#7c3aed" stroke-width="1.5" opacity="0.5"/>
    <text x="910" y="336" text-anchor="middle" font-family="monospace" font-size="10" fill="#a78bfa" opacity="0.7">Redis Cache</text>
    <rect x="80" y="390" width="160" height="80" rx="6" fill="none" stroke="#10b981" stroke-width="1.5" opacity="0.5"/>
    <rect x="80" y="390" width="160" height="80" rx="6" fill="#10b981" opacity="0.07"/>
    <text x="160" y="433" text-anchor="middle" font-family="monospace" font-size="11" fill="#34d399" opacity="0.8">CDN / Edge</text>
    <text x="160" y="449" text-anchor="middle" font-family="monospace" font-size="9" fill="#34d399" opacity="0.5">Cloudflare</text>
    <rect x="332" y="390" width="160" height="80" rx="6" fill="none" stroke="#f59e0b" stroke-width="1.5" opacity="0.5"/>
    <rect x="332" y="390" width="160" height="80" rx="6" fill="#f59e0b" opacity="0.06"/>
    <text x="412" y="433" text-anchor="middle" font-family="monospace" font-size="11" fill="#fbbf24" opacity="0.8">Observability</text>
    <text x="412" y="449" text-anchor="middle" font-family="monospace" font-size="9" fill="#fbbf24" opacity="0.5">Logs · Metrics · Traces</text>
  </g>
  <text x="60" y="620" font-family="monospace" font-size="13" fill="#f97316" opacity="0.7">// System Design · Scalability · Architecture</text>
  <radialGradient id="vig" cx="50%" cy="50%" r="70%">
    <stop offset="0%" style="stop-color:#000000;stop-opacity:0" />
    <stop offset="100%" style="stop-color:#000000;stop-opacity:0.55" />
  </radialGradient>
  <rect width="1200" height="675" fill="url(#vig)"/>
</svg>
